<svg xmlns="http://www.w3.org/2000/svg" viewBox="0 0 1800 1000" role="img" aria-label="Ambiance studio AWABROWS">
  <defs>
    <linearGradient id="bg" x1="0" y1="0" x2="1" y2="1">
      <stop offset="0" stop-color="#2d2724"/>
      <stop offset="0.45" stop-color="#8a786c"/>
      <stop offset="1" stop-color="#f7f4ef"/>
    </linearGradient>
    <radialGradient id="light" cx="70%" cy="34%" r="48%">
      <stop offset="0" stop-color="#fffdf9" stop-opacity="0.7"/>
      <stop offset="1" stop-color="#fffdf9" stop-opacity="0"/>
    </radialGradient>
  </defs>
  <rect width="1800" height="1000" fill="url(#bg)"/>
  <rect width="1800" height="1000" fill="url(#light)"/>
  <g stroke="#fffdf9" stroke-width="2" opacity="0.12">
    <path d="M0 140h1800M0 280h1800M0 420h1800M0 560h1800M0 700h1800M0 840h1800"/>
    <path d="M180 0v1000M360 0v1000M540 0v1000M720 0v1000M900 0v1000M1080 0v1000M1260 0v1000M1440 0v1000M1620 0v1000"/>
  </g>
  <path d="M420 590c260-230 620-250 960-60" fill="none" stroke="#fffdf9" stroke-width="42" stroke-linecap="round" opacity="0.28"/>
</svg>
